<svg width="18" height="29" viewBox="0 0 18 29" fill="none" xmlns="http://www.w3.org/2000/svg">
<path d="M12.6863 13.0416L6.36577 11.3314C5.63424 11.1366 5.12509 10.5034 5.12509 9.79989C5.12509 8.91776 5.89759 8.2034 6.85152 8.2034H10.7316C11.4456 8.2034 12.1479 8.40364 12.7331 8.77164C13.0901 8.99353 13.57 8.93941 13.8743 8.66341L15.9109 6.82339C16.3264 6.44998 16.2679 5.82762 15.8055 5.4975C14.3717 4.45843 12.5809 3.87937 10.7433 3.87396V1.27629C10.7433 0.800051 10.3219 0.4104 9.80693 0.4104H7.93419C7.41919 0.4104 6.99782 0.800051 6.99782 1.27629V3.87396H6.85152C3.1236 3.87396 0.127217 6.83422 0.472503 10.3465C0.7183 12.8413 2.77831 14.8708 5.37673 15.5743L11.3753 17.1978C12.1069 17.3981 12.616 18.0258 12.616 18.7294C12.616 19.6115 11.8435 20.3259 10.8896 20.3259H7.00953C6.29555 20.3259 5.59327 20.1256 5.00804 19.7576C4.65105 19.5357 4.17116 19.5898 3.86684 19.8659L1.83024 21.7059C1.41472 22.0793 1.47325 22.7016 1.93558 23.0318C3.36939 24.0708 5.1602 24.6499 6.99782 24.6553V27.253C6.99782 27.7292 7.41919 28.1189 7.93419 28.1189H9.80693C10.3219 28.1189 10.7433 27.7292 10.7433 27.253V24.6445C13.4705 24.5958 16.0279 23.0967 16.9292 20.7101C18.1874 17.3764 16.0747 13.9562 12.6863 13.0416Z" fill="white"/>
</svg>
